<svg width="53" height="68" viewBox="0 0 53 68" fill="none" xmlns="http://www.w3.org/2000/svg">
<path d="M1.00001 0.999988C6.91304 1.98551 26.6061 10.9359 27.0417 20.0833C27.223 23.8896 25.316 29.2172 22.1667 31.6666C15.4036 36.9267 4.17815 29.9088 13.5 23.5C18.7279 19.9058 26.1975 22.8211 31.4583 24.9583C38.5 28.5 38.5 28.5 43.3334 35.25C49 44.5 48.6119 57.8059 47.5 57.25" stroke="#F2F2F2" stroke-width="2" stroke-linecap="round"/>
<path d="M49.75 64C48.6261 63.3881 40.1729 58.4261 41.125 59.1666C42.3712 60.136 43.7571 61.0071 44.875 62.125C46.1976 63.4476 47.8331 64.4164 49 65.875C50.0239 67.1549 52 58.7612 52 57.25" stroke="#F2F2F2" stroke-width="2" stroke-linecap="round"/>
</svg>
